<svg width="16" height="16" viewBox="0 0 16 16" fill="none" xmlns="http://www.w3.org/2000/svg">
<path d="M7.49984 15.3337C11.5432 15.3337 14.8332 12.044 14.8332 8.00033C14.8332 7.30238 14.7357 6.61458 14.5428 5.95588C14.4478 5.63197 14.1096 5.44592 13.7848 5.54096C13.4606 5.6357 13.2751 5.97512 13.3698 6.29903C13.5296 6.84629 13.6109 7.4189 13.6109 8.00033C13.6109 11.3699 10.8695 14.1114 7.49984 14.1114C4.13022 14.1114 1.38873 11.3699 1.38873 8.00033C1.38873 4.63071 4.13022 1.88921 7.49984 1.88921C8.72445 1.88921 9.90266 2.24729 10.9071 2.92449C11.1866 3.11323 11.5668 3.03908 11.7552 2.75948C11.9438 2.47959 11.8703 2.09973 11.5904 1.91115C10.3834 1.09728 8.96898 0.666992 7.49984 0.666992C3.45645 0.666992 0.166504 3.95664 0.166504 8.00033C0.166504 12.044 3.45645 15.3337 7.49984 15.3337Z" fill="#ffff"/>
<path d="M14.3617 1.52885L7.49971 8.3905L5.3044 6.19552C5.04399 5.93526 4.62211 5.93526 4.36169 6.19552C4.10144 6.45593 4.10144 6.87781 4.36169 7.13822L7.02836 9.80489C7.15873 9.93526 7.32898 10.0002 7.49971 10.0002C7.67045 10.0002 7.8407 9.93526 7.97107 9.80489L15.3044 2.47156C15.5647 2.21114 15.5647 1.78927 15.3044 1.52885C15.044 1.2686 14.6221 1.2686 14.3617 1.52885Z" fill="#ffff"/>
</svg>
